<?xml version="1.0" encoding="iso-8859-1"?>
<!-- Generator: Adobe Illustrator 19.0.0, SVG Export Plug-In . SVG Version: 6.00 Build 0)  -->
<svg version="1.1" id="Capa_1" xmlns="http://www.w3.org/2000/svg" xmlns:xlink="http://www.w3.org/1999/xlink" x="0px" y="0px"
	 viewBox="0 0 512 512" style="enable-background:new 0 0 512 512;" xml:space="preserve">
<linearGradient id="SVGID_1_" gradientUnits="userSpaceOnUse" x1="0" y1="258" x2="512" y2="258" gradientTransform="matrix(1 0 0 -1 0 514)">
	<stop  offset="0" style="stop-color:#80D8FF"/>
	<stop  offset="1" style="stop-color:#EA80FC"/>
</linearGradient>
<path style="fill:url(#SVGID_1_);" d="M390.142,161.858c7.811,7.811,7.811,20.474,0,28.284l-160,160
	C226.237,354.047,221.119,356,216,356s-10.237-1.953-14.142-5.858l-80-80c-7.811-7.811-7.811-20.474,0-28.284s20.474-7.811,28.284,0
	L216,307.716l145.858-145.858C369.668,154.047,382.332,154.047,390.142,161.858z M512,60v392c0,33.084-26.916,60-60,60H60
	c-33.084,0-60-26.916-60-60V60C0,26.916,26.916,0,60,0h392C485.084,0,512,26.916,512,60z M472,60c0-11.028-8.972-20-20-20H60
	c-11.028,0-20,8.972-20,20v392c0,11.028,8.972,20,20,20h392c11.028,0,20-8.972,20-20V60z"/>
<g>
</g>
<g>
</g>
<g>
</g>
<g>
</g>
<g>
</g>
<g>
</g>
<g>
</g>
<g>
</g>
<g>
</g>
<g>
</g>
<g>
</g>
<g>
</g>
<g>
</g>
<g>
</g>
<g>
</g>
</svg>
